<svg xmlns="http://www.w3.org/2000/svg" width="1067" height="323" viewBox="0 0 1067 323" fill="none"><path fill-rule="evenodd" clip-rule="evenodd" d="M448.61 130.68C451.38 136.64 455.59 141.8 460.8 145.7C466.79 150.18 474.07 153.01 481.94 153.5L482.35 153.52H482.37L482.75 153.54L483.06 153.55L483.24 153.56L483.48 153.57H483.75H483.88H483.98H484.39H484.8H484.9H485.03H485.3L485.54 153.56L485.72 153.55L486.03 153.54L486.41 153.52H486.43L486.84 153.5C494.72 153.01 501.99 150.18 507.98 145.7C512.77 142.12 516.71 137.47 519.47 132.12L571.79 137.89C567.22 154.72 557.92 169.6 545.39 181.03C532.26 193.01 515.57 201.18 497.1 203.77L496.91 203.8C496.61 203.84 496.3 203.88 495.99 203.92L495.78 203.95L494.89 204.06L494.6 204.09L493.82 204.17L493.46 204.21L492.65 204.29L492.36 204.32L491.6 204.38L491.18 204.41L490.45 204.46L490.07 204.49L489.39 204.53L488.9 204.56L488.18 204.59L487.81 204.61L487.07 204.63L486.63 204.64C486.35 204.65 486.07 204.65 485.79 204.66H485.53C485.15 204.66 484.76 204.67 484.38 204.67C484 204.67 483.61 204.67 483.23 204.66H482.97C482.69 204.66 482.41 204.65 482.13 204.64L481.69 204.63L480.95 204.61L480.58 204.59L479.86 204.56L479.37 204.53L478.69 204.49L478.31 204.46L477.58 204.41L477.16 204.38L476.4 204.32L476.11 204.29L475.3 204.21L474.94 204.17L474.16 204.09L473.87 204.06L472.98 203.95L472.76 203.92C472.46 203.88 472.15 203.84 471.84 203.8L471.65 203.77C453.17 201.17 436.49 193.01 423.36 181.03C409.07 168 398.98 150.46 395.32 130.68H395.34C394.35 125.31 393.83 119.77 393.83 114.11C393.83 108.44 394.35 102.9 395.35 97.5201H395.33C398.98 77.7401 409.08 60.2101 423.37 47.1801C436.25 35.4301 452.54 27.36 470.58 24.6L470.64 24.5901C471 24.5401 471.35 24.4801 471.71 24.4301L471.75 24.42C472.1 24.37 472.46 24.3201 472.81 24.2801L472.93 24.2701C473.25 24.2301 473.57 24.1901 473.89 24.1501L474.11 24.1201C474.4 24.0901 474.69 24.0601 474.98 24.0301L475.28 24.0001L476.03 23.9301L476.47 23.8901L477.13 23.8401L477.57 23.8101L478.3 23.7601L478.68 23.7401L479.36 23.7001L479.85 23.67L480.56 23.6401L480.93 23.6201L481.67 23.6L482.11 23.5901C482.39 23.5801 482.67 23.5801 482.95 23.5701H483.22C483.6 23.5701 483.99 23.5601 484.37 23.5601C484.76 23.5601 485.14 23.5601 485.52 23.5701H485.78C486.06 23.5701 486.34 23.5801 486.62 23.5901L487.07 23.6L487.81 23.6201L488.18 23.6401L488.9 23.67L489.39 23.7001L490.07 23.7401L490.45 23.7601L491.18 23.8101L491.62 23.8401L492.28 23.8901L492.72 23.9301L493.47 24.0001L493.77 24.0301L494.64 24.1201L494.86 24.1501C495.18 24.1901 495.5 24.2301 495.82 24.2701L495.94 24.2801C496.29 24.3201 496.65 24.37 497 24.42L497.04 24.4301C497.4 24.4801 497.75 24.5301 498.11 24.5901L498.17 24.6C516.22 27.36 532.51 35.4301 545.38 47.1801C557.91 58.6101 567.21 73.4901 571.78 90.3201L519.46 96.0901C516.7 90.7301 512.75 86.0801 507.96 82.4901C502.19 78.1701 495.23 75.3901 487.68 74.7501L487.57 74.7401C487.32 74.7201 487.07 74.7001 486.81 74.6901L486.4 74.67H486.37L485.99 74.6501H485.97L485.69 74.6401L485.49 74.6301L485.26 74.6201L484.98 74.61H484.85H484.75H484.34H483.93H483.83H483.7L483.42 74.6201L483.19 74.6301L482.99 74.6401L482.71 74.6501H482.69L482.31 74.67H482.28L481.87 74.6901C481.62 74.7101 481.36 74.7201 481.11 74.7401L481 74.7501C473.46 75.3901 466.5 78.1701 460.73 82.4901C455.52 86.3901 451.31 91.5501 448.54 97.5101H448.52C446.18 102.55 444.87 108.17 444.87 114.1C444.87 120.02 446.17 125.63 448.51 130.67H448.61V130.68Z" fill="#536B2A"></path><path fill-rule="evenodd" clip-rule="evenodd" d="M784.62 322.19H917.52C1000.31 322.19 1066.83 254.28 1066.83 172.88V39.98L977.74 129.07H1038.88V129.08C1027.52 142.25 1013.94 152.29 979.42 152.29H954.52L913.34 193.47H1023.47V193.48C1012.11 206.65 998.53 216.69 964.01 216.69H890.12L849 257.81H984.22V257.82C972.87 270.99 959.28 281.03 924.76 281.03H825.79L784.62 322.19Z" fill="#536B2A"></path><path fill-rule="evenodd" clip-rule="evenodd" d="M698.32 23.5701L663.18 145.8L628.04 23.5701H577.08L629.13 204.67H697.22L749.29 23.5701H698.32Z" fill="#536B2A"></path><path fill-rule="evenodd" clip-rule="evenodd" d="M152.61 23.5701H102.36V128.43C102.36 135.6 99.45 142.1 94.75 146.8C90.05 151.5 83.5499 154.41 76.3799 154.41C69.2099 154.41 62.7098 151.5 58.0098 146.8C53.3098 142.1 50.4004 135.6 50.4004 128.43V23.5701H0.150391V128.43C0.150391 149.48 8.68047 168.55 22.4805 182.34C36.2705 196.13 55.3297 204.67 76.3896 204.67C97.4397 204.67 116.5 196.14 130.3 182.34C144.1 168.54 152.63 149.48 152.63 128.43V23.5701H152.61Z" fill="#536B2A"></path><path fill-rule="evenodd" clip-rule="evenodd" d="M768.21 305.78V216.68L768.22 193.47L768.21 172.89C768.21 171.06 768.24 169.24 768.31 167.42V167.41C768.34 166.75 768.36 166.09 768.4 165.43H768.42V165.07C768.45 164.53 768.48 163.98 768.51 163.44H768.52V163.28C768.55 162.81 768.58 162.34 768.62 161.87H768.63V161.78C768.66 161.39 768.69 161 768.72 160.61H768.73V160.46C768.76 160.13 768.79 159.79 768.82 159.46H768.84V159.27C768.87 158.95 768.9 158.63 768.93 158.31H768.94V158.18C769 157.56 769.07 156.94 769.14 156.32H769.15V156.21C769.18 155.93 769.21 155.66 769.25 155.38H769.26V155.31C769.29 155.05 769.32 154.8 769.35 154.54H769.36V154.45C769.39 154.2 769.42 153.95 769.45 153.7H769.46V153.63C769.49 153.37 769.53 153.12 769.56 152.86V152.84L769.63 152.32C769.67 152.01 769.72 151.7 769.76 151.4H769.77V151.36C769.8 151.16 769.83 150.97 769.86 150.77H769.88V150.65L769.96 150.14H769.99V149.96L770.08 149.4H770.1V149.29L770.18 148.77H770.2V148.65L770.28 148.15H770.3V148L770.39 147.49H770.41V147.39C770.57 146.48 770.73 145.57 770.91 144.67H770.93V144.54L771.01 144.14H771.04V144L771.12 143.61H771.15V143.47L771.23 143.08H771.26V142.95L771.34 142.55H771.36V142.44L771.45 142.03H771.47V141.95L771.56 141.51H771.57V141.46L771.68 140.98C771.78 140.53 771.88 140.07 771.99 139.62H772V139.58L772.09 139.2H772.11V139.13L772.19 138.78H772.21V138.68L772.31 138.26V138.24L772.41 137.84H772.42V137.81L772.51 137.42H772.52V137.38L772.61 137H772.62V136.95L772.71 136.58H772.72V136.53L772.82 136.16H772.83V136.12L772.93 135.74H772.94V135.71L773.04 135.32V135.31C773.18 134.79 773.31 134.27 773.46 133.75V133.74C773.53 133.5 773.59 133.26 773.66 133.02H773.67V133L773.75 132.72H773.78V132.62L773.87 132.3H773.88V132.25L773.95 131.99H773.98V131.89L774.07 131.57H774.08V131.52L774.16 131.25H774.19V131.16L774.29 130.83H774.3V130.8L774.38 130.52H774.4V130.45L774.5 130.1L774.59 129.79H774.6V129.75C774.67 129.53 774.74 129.3 774.81 129.08L774.92 128.74V128.73L775.01 128.43H775.02V128.4L775.11 128.12H775.13V128.07L775.21 127.8H775.23V127.73L775.31 127.48H775.34V127.4C775.9 125.67 776.49 123.94 777.11 122.24H777.12V122.21L777.22 121.93L777.41 121.41H777.43V121.36L777.53 121.1H777.54V121.08L777.73 120.57H777.75V120.52L777.85 120.26V120.24C777.91 120.07 777.98 119.9 778.05 119.73H778.07V119.69C778.17 119.42 778.28 119.16 778.38 118.89V118.88C778.58 118.36 778.79 117.84 779 117.32H779.01V117.3C779.08 117.13 779.14 116.96 779.21 116.8H779.22V116.79L779.3 116.59H779.32V116.53L779.51 116.06H779.53V116.02L779.73 115.54H779.74V115.52L779.82 115.33H779.85V115.27L780.05 114.81H780.06V114.78C780.16 114.55 780.26 114.31 780.36 114.08H780.37V114.05C780.47 113.82 780.58 113.58 780.68 113.35H780.69V113.33C780.96 112.71 781.24 112.08 781.52 111.46V111.45L781.61 111.25H781.62V111.22L781.7 111.04H781.72V110.99C781.86 110.69 782 110.39 782.13 110.1V110.09L782.22 109.89H782.23V109.87L782.32 109.68H782.34V109.64L782.42 109.47H782.45V109.42C782.69 108.91 782.93 108.4 783.18 107.9V107.89C783.31 107.61 783.45 107.34 783.59 107.06H783.6V107.04L783.69 106.85H783.7V106.83L783.79 106.64H783.8V106.62L783.89 106.43H783.9V106.41L783.99 106.22H784V106.2L784.1 106.01H784.11V105.99L784.21 105.8H784.22V105.78L784.32 105.59H784.33V105.58L784.43 105.38V105.37L784.53 105.17V105.16L784.63 104.96C784.94 104.36 785.25 103.77 785.56 103.18H785.57V103.16L785.67 102.97V102.96C785.87 102.58 786.08 102.2 786.29 101.82H786.3V101.8L786.4 101.61C786.53 101.37 786.67 101.12 786.8 100.88H786.82V100.85L786.92 100.67V100.66C787.02 100.49 787.11 100.32 787.21 100.15H787.24V100.1L787.33 99.9401H787.34V99.92C787.47 99.68 787.61 99.4501 787.74 99.2101H787.75V99.1801L787.85 99.0001C787.95 98.8301 788.05 98.65 788.15 98.48H788.16V98.4601C788.5 97.8701 788.85 97.2801 789.19 96.7001H789.2V96.6801L789.5 96.1801H789.51V96.16C789.61 95.99 789.71 95.82 789.81 95.66H789.82V95.6401L790 95.3401H790.03V95.29L790.13 95.1301V95.1201L790.32 94.8101H790.34V94.7801L790.64 94.29H790.65V94.2801L790.84 93.98H790.86V93.9401C790.96 93.7801 791.06 93.6101 791.17 93.4501H791.18V93.4401C791.42 93.0601 791.66 92.68 791.91 92.3V92.29L792.11 91.98H792.12V91.97L792.31 91.67H792.32V91.6501L792.51 91.36H792.53V91.3301L792.72 91.04H792.74V91.0101L792.93 90.73H792.95V90.6901L793.14 90.41H793.16V90.3801L793.35 90.1H793.37V90.0701L793.56 89.79H793.58V89.7601L793.77 89.48H793.79V89.4501L793.99 89.16H794V89.1401L794.2 88.85H794.21V88.8401L794.42 88.54C794.55 88.35 794.69 88.1501 794.82 87.9601L795.15 87.4901H795.16V87.48L795.45 87.0701H795.48V87.0001L795.68 86.72H795.69V86.7001L795.98 86.3H796.01V86.2601L796.21 85.9901H796.22V85.97L796.28 85.8801H796.32V85.8201L796.51 85.5601H796.53V85.5301L796.58 85.4601H796.63V85.3901L796.73 85.2501V85.2401L796.8 85.1401H796.83V85.1L796.87 85.04H796.93V84.9601L797.02 84.8301H797.03V84.8101L797.09 84.72H797.13V84.67L797.32 84.41H797.34V84.3901L797.4 84.3101H797.44V84.2501L797.63 83.9901H797.65V83.9601L797.71 83.8801H797.76V83.8201L797.95 83.5701H797.97V83.54L798.03 83.47H798.08V83.41L798.27 83.16H798.29V83.1301L798.59 82.7401H798.61V82.72L798.92 82.3201H798.93V82.3101L799.24 81.9001C799.37 81.7301 799.51 81.5501 799.64 81.3801H799.65V81.36L799.96 80.9601L800.04 80.86H800.06V80.8301L800.37 80.4401H800.38V80.4301L800.46 80.3301H800.49V80.3L800.8 79.92H800.81V79.91L800.89 79.8101H800.92V79.7801L800.98 79.7101H801.03V79.6501L801.23 79.4001V79.3901L801.31 79.29H801.34V79.2601L801.4 79.1901H801.45V79.1301L801.75 78.7701H801.77V78.7501L801.84 78.67H801.88V78.6201L801.93 78.5601H801.99V78.4901L802.19 78.2501H802.2V78.2401L802.28 78.1501H802.31V78.1201L802.37 78.05H802.41V77.9901L802.71 77.6201H802.72V77.61L802.8 77.5201H802.83V77.48L802.89 77.41H802.93V77.35L803.24 76.9901H803.25V76.98L803.33 76.8901H803.36V76.86C803.5 76.7 803.64 76.5301 803.78 76.3701L803.87 76.2701H803.88V76.2501C804.05 76.0501 804.23 75.8401 804.4 75.6401C804.64 75.3601 804.88 75.08 805.13 74.8H805.14V74.79L805.22 74.6901H805.24V74.67L805.31 74.5901H805.34V74.55L805.4 74.48H805.44V74.4301C805.58 74.2701 805.72 74.1101 805.86 73.9501L805.95 73.85H805.96V73.8401L806.04 73.7501H806.06V73.73L806.13 73.6501H806.16V73.61L806.22 73.54H806.26V73.4901L806.31 73.4401H806.37V73.3801C806.51 73.2301 806.65 73.07 806.79 72.92L806.88 72.8201H806.89V72.8101L806.97 72.72H806.99V72.6901L807.06 72.61H807.09V72.5701L807.15 72.5001H807.19V72.4501L807.24 72.3901H807.29V72.3301L807.33 72.2801H807.39V72.2101C807.56 72.0201 807.73 71.8301 807.91 71.6501H807.92V71.6401L808.01 71.54H808.02V71.5301L808.1 71.4401H808.12V71.42L808.2 71.3401H808.23V71.3101L808.3 71.2401H808.34V71.2001C808.65 70.8701 808.95 70.54 809.26 70.22V172.9V224.24V264.65L768.21 305.78ZM832.58 50.2501L832.73 50.1501H832.75V50.1301L833.03 49.9401H833.07V49.91L833.34 49.73H833.39V49.7001C833.47 49.6401 833.56 49.5801 833.64 49.5201H833.7V49.48L833.8 49.42H833.81V49.41L833.96 49.3101H834.02V49.2701L834.11 49.2101H834.12V49.2001L834.42 49.0001H834.43V48.9901L834.73 48.79H834.75V48.7801C834.85 48.7101 834.94 48.6501 835.04 48.5801H835.06V48.5601L835.35 48.3701H835.37V48.36C835.47 48.29 835.57 48.23 835.67 48.16H835.69V48.1501L835.99 47.9501H836V47.9401L836.31 47.7401H836.32V47.73C836.7 47.49 837.07 47.2401 837.45 47.0001H837.47V46.98L837.77 46.79H837.78V46.7801C837.94 46.6801 838.1 46.57 838.27 46.47H838.31V46.4501C838.41 46.3901 838.51 46.3301 838.6 46.2601H838.62V46.2501L838.77 46.16H838.83V46.1201L839.11 45.9501H839.15V45.9301C839.25 45.8701 839.35 45.8101 839.45 45.7401H839.47V45.73L839.62 45.6401H839.68V45.6C839.78 45.54 839.87 45.4901 839.97 45.4301H840V45.41L840.14 45.3201H840.21V45.2801L840.49 45.11H840.53V45.0901C840.63 45.0301 840.74 44.9601 840.84 44.9001H840.85L841.02 44.8H841.06V44.7701C841.16 44.7101 841.27 44.6501 841.37 44.5901H841.38L841.55 44.4901H841.59V44.47C842.11 44.16 842.63 43.85 843.16 43.55L843.34 43.4501H843.37V43.4301C843.54 43.3301 843.71 43.2301 843.88 43.1401H843.89V43.1301L844.06 43.0301H844.1V43.0001L844.25 42.92H844.31V42.8801L844.62 42.7101L844.8 42.61H844.83V42.5901L844.99 42.5001H845.04V42.47L845.18 42.3901H845.25V42.35C845.35 42.29 845.45 42.2401 845.55 42.1801H845.56V42.17L845.73 42.0701H845.76V42.05L845.92 41.9601H845.97V41.9301L846.11 41.85H846.18V41.8101L846.69 41.5301H846.71V41.5201L846.88 41.42H846.92V41.4001L847.08 41.3201H847.13V41.29C847.44 41.12 847.75 40.96 848.06 40.8H848.07V40.79C849.08 40.26 850.09 39.74 851.11 39.23L851.32 39.1201L851.53 39.0201C851.6 38.9901 851.67 38.95 851.74 38.92C852.24 38.67 852.74 38.4301 853.24 38.1901H853.31V38.16L853.46 38.0901H853.52V38.0601L853.68 37.9901H853.73V37.97L853.9 37.8901H853.94V37.8701L854.12 37.7801H854.15V37.7701L854.35 37.6801H854.36V37.67L854.57 37.5701C854.94 37.3901 855.32 37.22 855.7 37.05H855.72V37.04L855.93 36.9401C856.08 36.8701 856.23 36.8 856.39 36.73H856.46V36.7001L856.62 36.6301H856.67V36.61L856.86 36.5301H856.88V36.5201C857.03 36.4501 857.18 36.3901 857.33 36.3201H857.4V36.29L857.56 36.22H857.61V36.2001L857.8 36.1201H857.82V36.11L858.04 36.0101H858.14V35.97L858.28 35.91H858.35V35.8801L858.52 35.8H858.56V35.79L858.77 35.7001L859.01 35.6H859.08V35.5701L859.25 35.5001H859.29V35.48L859.5 35.3901C859.58 35.3601 859.66 35.32 859.74 35.29H859.81V35.2601C859.87 35.2301 859.93 35.2101 859.99 35.1901H860.02V35.1801C860.26 35.0801 860.5 34.9801 860.74 34.8801H860.75C861.26 34.6701 861.77 34.4601 862.28 34.2601H862.32V34.2401C862.48 34.1801 862.64 34.11 862.8 34.05H862.84V34.0001C863 33.9401 863.16 33.8701 863.33 33.8101H863.37V33.8L863.6 33.7101H863.68V33.6801L863.87 33.61H863.89V33.6L864.14 33.5001H864.21V33.47L864.41 33.3901H864.52V33.35L864.68 33.29H864.73V33.2701L864.96 33.1901H865.05V33.16L865.24 33.0901H865.25V33.0801L865.51 32.98H865.56V32.9601L865.79 32.8701H865.87V32.8401L866.06 32.7701H866.08L866.35 32.67H866.4V32.6501C866.67 32.5501 866.95 32.45 867.22 32.35H867.24V32.3401C867.73 32.1701 868.21 31.9901 868.7 31.8201H868.71L869 31.72H869.02V31.7101L869.3 31.61H869.33V31.6C869.42 31.57 869.51 31.5401 869.6 31.5101H869.65V31.4901C869.74 31.4601 869.83 31.4301 869.92 31.4001H869.97V31.3801L870.23 31.29H870.28V31.2701L870.54 31.1801H870.59V31.16L870.85 31.0701H870.9V31.05C870.99 31.02 871.07 30.9901 871.16 30.9601H871.21V30.9401L871.48 30.85H871.53V30.8401C871.62 30.8101 871.72 30.7801 871.81 30.7501H871.85V30.7401L872.14 30.6501H872.16V30.6401L872.46 30.54H872.47C872.57 30.51 872.68 30.4701 872.78 30.4401L873.11 30.3401H873.2V30.3101L873.45 30.23H873.51V30.2101L873.72 30.1401V131.51V165.88V200.25L832.57 241.4V224.21V106.18V50.2501H832.58ZM896.94 25.0001H896.98V24.98C897.18 24.95 897.38 24.9201 897.58 24.9001H897.82V24.8701C898.01 24.8401 898.2 24.82 898.39 24.8H898.66V24.7601C898.84 24.7401 899.02 24.7101 899.2 24.6901H899.5V24.66C899.7 24.64 899.89 24.6101 900.09 24.5901H900.34V24.5601C900.55 24.5301 900.77 24.51 900.98 24.48H901.17V24.4601C901.44 24.4301 901.7 24.4001 901.97 24.3801H902.01C902.71 24.3101 903.42 24.24 904.12 24.17H904.42V24.1401C904.73 24.1101 905.04 24.0901 905.35 24.0601H905.79V24.0301C906.09 24.0101 906.39 23.9801 906.69 23.9601H907.25V23.92C907.58 23.9 907.9 23.87 908.23 23.85H908.61V23.8301C909.98 23.7501 911.36 23.6901 912.75 23.6401H914.27V23.6C915.35 23.58 916.43 23.5601 917.52 23.5601H938.1V118.79V135.88L896.94 177.04V165.89V66.6901V25.0001ZM961.32 23.5601H985.08H1050.42L961.32 112.66V64.7001V53.9501V23.5601Z" fill="#DA9406"></path><path fill-rule="evenodd" clip-rule="evenodd" d="M353.71 0.0400391C368.06 0.0400391 379.7 11.6701 379.7 26.0301C379.7 40.3801 368.07 52.0201 353.71 52.0201C339.35 52.0201 327.72 40.3901 327.72 26.0301C327.72 11.6801 339.36 0.0400391 353.71 0.0400391Z" fill="#536B2A"></path><path fill-rule="evenodd" clip-rule="evenodd" d="M378.74 88.8201V170.59V197.59H328.68V170.59V88.8201V61.8201H378.74V88.8201Z" fill="#536B2A"></path><path d="M313.51 197.59V111.88C313.51 102.18 312.72 97.46 311.68 93.01C309.58 84.1 305.13 75.19 298.05 69.42C285.21 58.41 268.43 58.15 263.45 58.15C249.56 58.15 235.14 61.82 225.18 71.78C222.56 74.4 222.03 74.93 218.63 79.91V61.83H167.78V197.6H221.51V125.26C221.51 119.49 221.25 102.98 241.17 102.98C253.49 102.98 257.42 109.53 258.73 114.25C259.52 117.4 259.52 120.28 259.52 123.42V197.6H313.51V197.59Z" fill="#536B2A"></path><path d="M64.5996 249.96L55.3496 245.5C55.0096 246.52 54.8203 246.95 54.5703 247.44C53.8903 248.6 52.1499 251.12 48.4199 251.12C47.5999 251.12 46.0496 251.07 44.3496 249.76C42.6996 248.45 41.2002 245.93 41.2002 241.23C41.2002 240.36 41.0602 235.42 44.4502 232.9C45.1302 232.42 46.3901 231.69 48.3701 231.69C52.7301 231.64 54.4298 235.18 55.0098 236.34C55.1598 236.68 55.3502 237.02 55.4902 237.36L64.5498 232.85C63.8198 231.54 63.3403 230.72 62.3203 229.56C60.4303 227.38 55.7805 223.31 47.9805 223.31C44.9805 223.31 38.4402 223.79 33.7402 230.43C30.4502 235.03 30.2002 239.78 30.2002 241.86C30.2002 244.28 30.6396 251.11 36.3496 255.91C39.6896 258.77 43.5697 259.83 47.9297 259.83C55.5397 259.83 59.8997 256.34 61.9297 254.02C62.7597 253.06 63.3896 252.19 64.5996 249.96Z" fill="#536B2A"></path><path d="M99.1602 258.77V251.36H81.4297V244.58H96.6396V237.17H81.4805V232.08H97.71V224.57H70.6201V258.77H99.1602Z" fill="#536B2A"></path><path d="M138.22 258.77V224.57H128.1L128.24 244.48L116.67 224.57H105.18V258.77H115.26L115.16 238.91L126.55 258.77H138.22Z" fill="#536B2A"></path><path d="M171.81 233V224.57H143.62V233H152.34V258.77H163.14V233H171.81Z" fill="#536B2A"></path><path d="M210.05 258.77L201.67 244.96C203.32 244.33 203.95 244.04 204.67 243.55C207.43 241.71 208.69 238.75 208.69 235.51C208.69 232.51 207.67 230.37 207.09 229.36C204.62 225.24 200.26 224.85 198.76 224.71C197.79 224.61 196.77 224.56 195.8 224.56H177.29V258.76H188.14V246.7H191.29L197.93 258.76H210.05V258.77ZM197.89 235.71C197.89 236.39 197.7 237.02 197.65 237.21C196.87 239.44 194.65 239.68 192.66 239.68H188.15V231.73H192.56C193.82 231.73 195.08 231.78 196.19 232.41C196.38 232.51 196.87 232.8 197.21 233.28C197.65 233.97 197.89 234.89 197.89 235.71Z" fill="#536B2A"></path><path d="M250.72 241.38C250.72 234.21 247.47 229.99 245.44 228.01C240.69 223.36 234.64 223.31 232.41 223.31C225.29 223.31 221.22 226.17 219.09 228.25C214.39 232.95 214 239.39 214 241.67C214 246.66 215.65 251.65 218.99 254.99C223.69 259.79 230.04 259.88 232.22 259.88C234.4 259.88 240.65 259.78 245.49 254.94C250.38 250.05 250.72 243.47 250.72 241.38ZM239.82 241.33C239.82 245.45 238.71 247.68 237.4 249.08C236.04 250.63 234.44 251.21 232.41 251.21C230.76 251.21 229.7 250.82 229.02 250.53C228.1 250.09 227.37 249.51 226.74 248.74C224.8 246.27 224.85 242.3 224.85 241.67C224.85 237.65 226.11 235.23 227.32 233.97C229.11 232.08 231.58 231.94 232.41 231.94C233.04 231.94 234.64 232.04 236.19 232.96C239.96 235.23 239.82 240.41 239.82 241.33Z" fill="#536B2A"></path><path d="M302.37 245.06V224.57H291.47V245.94C291.47 246.96 291.47 247.73 291.13 248.6C290.16 251.17 287.45 251.31 286.72 251.31C285.94 251.31 283.23 251.16 282.36 248.55C281.97 247.48 282.02 246.27 282.02 245.93V224.56H271.17V244.86C271.17 248.45 271.41 249.85 272.04 251.55C273.64 255.77 277.13 257.46 278.58 258.09C281.97 259.59 285.36 259.69 286.62 259.69C292.72 259.69 298.93 257.32 301.3 251.12C302.08 249.09 302.37 247.24 302.37 245.06Z" fill="#536B2A"></path><path d="M342.89 258.77V224.57H332.76L332.91 244.48L321.33 224.57H309.84V258.77H319.92L319.83 238.91L331.21 258.77H342.89Z" fill="#536B2A"></path><path d="M361.31 258.77V224.57H350.46V258.77H361.31Z" fill="#536B2A"></path><path d="M401.05 224.57H389.96L383.9 245.55L377.8 224.57H366.75L378.19 258.77H389.48L401.05 224.57Z" fill="#536B2A"></path><path d="M434.98 258.77V251.36H417.25V244.58H432.46V237.17H417.3V232.08H433.53V224.57H406.45V258.77H434.98Z" fill="#536B2A"></path><path d="M473.76 258.77L465.38 244.96C467.03 244.33 467.66 244.04 468.38 243.55C471.14 241.71 472.4 238.75 472.4 235.51C472.4 232.51 471.38 230.37 470.8 229.36C468.33 225.24 463.97 224.85 462.47 224.71C461.5 224.61 460.48 224.56 459.51 224.56H441V258.76H451.85V246.7H455L461.64 258.76H473.76V258.77ZM461.6 235.71C461.6 236.39 461.41 237.02 461.36 237.21C460.58 239.44 458.36 239.68 456.37 239.68H451.86V231.73H456.27C457.53 231.73 458.79 231.78 459.9 232.41C460.09 232.51 460.58 232.8 460.92 233.28C461.35 233.97 461.6 234.89 461.6 235.71Z" fill="#536B2A"></path><path d="M510.35 247.68C510.35 240.85 505.07 238.96 502.94 238.28C499.55 237.17 496.35 236.73 495.14 236.54C494.22 236.39 492.18 236.01 491.31 235.47C490.83 235.13 490.44 234.55 490.44 233.92C490.44 232.76 491.6 232.22 491.8 232.13C492.82 231.69 494.13 231.69 494.37 231.69C496.94 231.69 500.38 232.22 502.36 234.06C502.65 234.3 502.89 234.59 503.33 235.17L510.16 229.5C509.24 228.58 508.61 227.9 507.54 227.13C502.65 223.54 496.49 223.45 494.75 223.45C493.44 223.45 484.38 223.35 480.89 229.75C479.68 231.93 479.63 234.01 479.63 234.93C479.58 238.66 481.52 240.94 482.59 241.86C484.24 243.31 486.76 244.48 491.46 245.4C494.51 246.03 496.69 246.32 497.9 246.76C498.92 247.1 499.3 247.53 499.55 248.02C499.6 248.17 499.79 248.46 499.79 248.84C499.79 250.54 497.66 251.46 494.61 251.46C492.24 251.46 488.65 250.73 486.71 249.04C486.23 248.65 485.79 248.12 485.06 246.96L476.78 252.24C477.94 253.74 478.86 254.76 480.41 255.92C484.48 258.97 489.23 259.8 494.22 259.8C495.67 259.8 501.44 259.9 505.85 256.65C507.35 255.53 510.35 252.77 510.35 247.68Z" fill="#536B2A"></path><path d="M528 258.77V224.57H517.15V258.77H528Z" fill="#536B2A"></path><path d="M561.59 233V224.57H533.39V233H542.11V258.77H552.92V233H561.59Z" fill="#536B2A"></path><path d="M590.48 216.43H579.97L576.87 222.24H583.22L590.48 216.43ZM600.22 258.77L587.43 224.57H575.12L562.04 258.77H573.67L575.17 253.97H587.09L588.59 258.77H600.22ZM584.86 246.37H577.5L581.23 234.31L584.86 246.37Z" fill="#536B2A"></path><path d="M638.6 258.77L630.22 244.96C631.87 244.33 632.5 244.04 633.22 243.55C635.98 241.71 637.24 238.75 637.24 235.51C637.24 232.51 636.22 230.37 635.64 229.36C633.17 225.24 628.81 224.85 627.31 224.71C626.34 224.61 625.32 224.56 624.35 224.56H605.84V258.76H616.69V246.7H619.84L626.48 258.76H638.6V258.77ZM626.44 235.71C626.44 236.39 626.25 237.02 626.2 237.21C625.42 239.44 623.2 239.68 621.21 239.68H616.7V231.73H621.11C622.37 231.73 623.63 231.78 624.74 232.41C624.93 232.51 625.42 232.8 625.76 233.28C626.2 233.97 626.44 234.89 626.44 235.71Z" fill="#536B2A"></path><path d="M654.27 258.77V224.57H643.41V258.77H654.27Z" fill="#536B2A"></path><path d="M697.69 241.38C697.69 234.21 694.44 229.99 692.41 228.01C687.66 223.36 681.61 223.31 679.38 223.31C672.26 223.31 668.19 226.17 666.06 228.25C661.36 232.95 660.97 239.39 660.97 241.67C660.97 246.66 662.62 251.65 665.96 254.99C670.66 259.79 677.01 259.88 679.19 259.88C681.37 259.88 687.62 259.78 692.46 254.94C697.35 250.05 697.69 243.47 697.69 241.38ZM686.79 241.33C686.79 245.45 685.68 247.68 684.37 249.08C683.01 250.63 681.41 251.21 679.38 251.21C677.73 251.21 676.67 250.82 675.99 250.53C675.07 250.09 674.34 249.51 673.71 248.74C671.77 246.27 671.82 242.3 671.82 241.67C671.82 237.65 673.08 235.23 674.29 233.97C676.08 232.08 678.55 231.94 679.38 231.94C680.01 231.94 681.61 232.04 683.16 232.96C686.94 235.23 686.79 240.41 686.79 241.33Z" fill="#536B2A"></path><path d="M180.19 309.24L167.56 303.16C167.1 304.55 166.83 305.14 166.5 305.81C165.57 307.4 163.19 310.84 158.1 310.84C156.98 310.84 154.86 310.77 152.54 308.99C150.29 307.2 148.24 303.77 148.24 297.35C148.24 296.16 148.04 289.41 152.67 285.97C153.6 285.31 155.32 284.32 158.03 284.32C163.98 284.25 166.3 289.08 167.09 290.67C167.29 291.13 167.55 291.6 167.75 292.06L180.12 285.91C179.13 284.12 178.47 283 177.08 281.41C174.5 278.43 168.15 272.88 157.5 272.88C153.4 272.88 144.47 273.54 138.06 282.6C133.56 288.88 133.23 295.36 133.23 298.21C133.23 301.52 133.83 310.84 141.63 317.39C146.19 321.29 151.48 322.75 157.44 322.75C167.82 322.75 173.78 317.99 176.55 314.81C177.67 313.47 178.54 312.28 180.19 309.24Z" fill="#536B2A"></path><path d="M204.58 321.28V274.58H189.76V321.28H204.58Z" fill="#536B2A"></path><path d="M261.24 297.73C261.24 288.27 258 283.05 254.96 280.07C250.26 275.57 244.58 274.98 238.36 274.71C236.31 274.64 234.19 274.58 232.14 274.58H216.27V321.27H235.71C239.54 321.27 243.78 321.34 247.55 320.21C257.4 317.37 259.79 308.04 260.51 305C260.78 303.75 261.24 301.17 261.24 297.73ZM246.36 297.93C246.36 298.66 246.49 307.06 241 309.7C239.54 310.43 238.29 310.56 236.7 310.56H231.08V285.5H236.64C239.62 285.5 240.74 285.96 242.13 286.82C246.5 289.66 246.36 297.53 246.36 297.93Z" fill="#536B2A"></path><path d="M317.71 321.28L300.25 274.59H283.45L265.59 321.28H281.46L283.51 314.73H299.78L301.83 321.28H317.71ZM296.75 304.35H286.7L291.79 287.88L296.75 304.35Z" fill="#536B2A"></path><path d="M371.73 297.73C371.73 288.27 368.49 283.05 365.45 280.07C360.75 275.57 355.07 274.98 348.85 274.71C346.8 274.64 344.68 274.58 342.63 274.58H326.76V321.27H346.2C350.04 321.27 354.27 321.34 358.04 320.21C367.89 317.37 370.28 308.04 371 305C371.27 303.75 371.73 301.17 371.73 297.73ZM356.85 297.93C356.85 298.66 356.98 307.06 351.49 309.7C350.03 310.43 348.78 310.56 347.19 310.56H341.57V285.5H347.13C350.11 285.5 351.23 285.96 352.62 286.82C356.98 289.66 356.85 297.53 356.85 297.93Z" fill="#536B2A"></path><path d="M421.12 321.28V311.16H396.92V301.9H417.68V291.78H396.98V284.84H419.14V274.58H382.17V321.28H421.12Z" fill="#536B2A"></path><path d="M493.45 274.58H478.31L470.04 303.22L461.71 274.58H446.63L462.23 321.28H477.64L493.45 274.58Z" fill="#536B2A"></path><path d="M541.12 321.28V311.16H516.92V301.9H537.68V291.78H516.98V284.84H539.14V274.58H502.17V321.28H541.12Z" fill="#536B2A"></path><path d="M595.41 321.28L583.97 302.43C586.22 301.57 587.08 301.17 588.07 300.51C591.84 298 593.56 293.96 593.56 289.53C593.56 285.43 592.17 282.52 591.38 281.13C588.01 275.51 582.06 274.98 580 274.78C578.68 274.65 577.29 274.58 575.97 274.58H550.71V321.27H565.52V304.8H569.82L578.88 321.27H595.41V321.28ZM578.81 289.8C578.81 290.73 578.55 291.59 578.48 291.85C577.42 294.89 574.38 295.22 571.67 295.22H565.52V284.37H571.54C573.26 284.37 574.98 284.44 576.5 285.3C576.76 285.43 577.43 285.83 577.89 286.49C578.47 287.41 578.81 288.67 578.81 289.8Z" fill="#536B2A"></path><path d="M648.3 297.73C648.3 288.27 645.06 283.05 642.02 280.07C637.32 275.57 631.64 274.98 625.42 274.71C623.37 274.64 621.25 274.58 619.2 274.58H603.33V321.27H622.77C626.61 321.27 630.84 321.34 634.61 320.21C644.46 317.37 646.85 308.04 647.57 305C647.84 303.75 648.3 301.17 648.3 297.73ZM633.42 297.93C633.42 298.66 633.55 307.06 628.06 309.7C626.6 310.43 625.35 310.56 623.76 310.56H618.14V285.5H623.7C626.68 285.5 627.8 285.96 629.19 286.82C633.55 289.66 633.42 297.53 633.42 297.93Z" fill="#536B2A"></path><path d="M697.69 321.28V311.16H673.49V301.9H694.25V291.78H673.55V284.84H695.71V274.58H658.74V321.28H697.69Z" fill="#536B2A"></path></svg>